# xmcd
#
# Track frame offsets:
#  166
#  16118
#  34871
#  45297
#  64405
#  80737
#  95285
#  109787
#  119617
#  129870
#  144378
#  154643
#  167969
#
# Disc length: 2341 seconds
#
# Revision: 0
# Processed by: cddbd v1.5.1PL2 Copyright (c) Steve Scherf et al.
# Submitted via: Collectorz.com_Music_Collector 6.10
#
DISCID=a409230d
DTITLE=Low Budget Brothers - Oneway Tracks
DYEAR=2004
DGENRE=Country/Blues
TTITLE0=Rocking Black Clown
TTITLE1=Doremi
TTITLE2=Remembering Chet
TTITLE3=In The Jailhouse Now
TTITLE4=Nothing But Time
TTITLE5=Shake This Note For You
TTITLE6=San Francisco Bay Blues
TTITLE7=My Baby Tell Me
TTITLE8=Hounddog Blue
TTITLE9=Maybe A Lie
TTITLE10=Ain't Got No Honey Baby
TTITLE11=That's Where I Belong
TTITLE12=Bunny On The Hill
EXTD=
EXTT0=
EXTT1=
EXTT2=
EXTT3=
EXTT4=
EXTT5=
EXTT6=
EXTT7=
EXTT8=
EXTT9=
EXTT10=
EXTT11=
EXTT12=
PLAYORDER=
